<svg width="18" height="18" viewBox="0 0 18 18" fill="currentColor"
    xmlns="http://www.w3.org/2000/svg">
    <path fill-rule="evenodd" clip-rule="evenodd"
        d="M10.0117 5.82916C8.90122 3.73185 7.4693 1.82002 6.19629 0.510658C7.27424 0.133726 8.31114 0 9.0489 0C11.2188 0 13.5773 0.856562 15.2707 2.59962C14.056 3.78455 11.784 5.08748 10.0117 5.82916ZM1.57156 7.55819C0.94954 7.55819 0.47939 7.5438 0.161133 7.51503C0.495642 5.84895 1.19006 4.4101 2.00737 3.38852C2.8247 2.36695 3.70453 1.70671 4.72041 1.15234C6.03682 2.44731 7.45129 4.40992 8.55069 6.35237C6.51232 7.12907 3.98738 7.55819 1.57156 7.55819ZM2.58595 15.2606C1.49682 14.1187 0.744791 12.8126 0.378094 11.6109C0.126031 10.7849 0 9.76414 0 9.06398C1.97726 9.19497 6.34228 8.85551 9.27601 7.73633C9.47854 8.13921 9.74387 8.71006 9.94295 9.29375C5.67309 10.7498 3.51533 13.7811 2.58595 15.2606ZM3.78223 16.2616C5.2371 17.3081 6.99393 17.9991 9.04807 17.9991C10.1186 17.9991 10.9215 17.8704 11.6235 17.6009C11.5621 17.0784 11.5116 16.5715 11.4622 16.075L11.4621 16.0746L11.4621 16.0745L11.4621 16.0744C11.2788 14.2332 11.1098 12.5358 10.449 10.7227C7.14975 11.6774 4.93751 14.1424 3.78223 16.2616ZM10.6572 7.17797C10.9333 7.68547 11.1695 8.15137 11.4314 8.89301C13.5751 8.46597 16.1565 8.60355 17.9966 9.19612C18.0538 7.17797 17.4469 5.15589 16.2715 3.71094C14.8173 5.08193 12.7832 6.27286 10.6572 7.17797ZM13.1224 17.0321C12.9266 14.5134 12.6382 12.4649 11.9004 10.3354C14.1968 9.92689 15.9425 10.1241 17.9058 10.7427C17.7054 11.7236 17.4532 12.5742 16.7299 13.7252C16.0066 14.8763 14.5311 16.2798 13.1224 17.0321Z" />
</svg>