<svg width="22" height="22" viewBox="0 0 22 22" fill="currentColor"
    xmlns="http://www.w3.org/2000/svg">
    <g id="insta">
        <path id="Vector"
            d="M11 2C6.0274 2 2 6.04339 2 11.0357C2 15.2821 4.90221 18.8065 8.81779 19.8C8.7726 19.687 8.75038 19.5285 8.75038 19.3709V17.8344H7.62519C7.01779 17.8344 6.45481 17.5638 6.2074 17.0662C5.91481 16.5241 5.86962 15.6882 5.1274 15.1683C4.90221 14.9876 5.08221 14.8069 5.32962 14.8292C5.80221 14.9645 6.18443 15.2814 6.54443 15.7551C6.90443 16.2295 7.06221 16.3426 7.73702 16.3426C8.05183 16.3426 8.54664 16.3203 8.99702 16.2518C9.24443 15.619 9.67183 15.0545 10.1896 14.7838C7.17481 14.4224 5.73481 12.9313 5.73481 10.8981C5.73481 10.0168 6.11702 9.1809 6.7474 8.45805C6.54519 7.75749 6.27481 6.31177 6.83779 5.74733C8.18817 5.74733 8.99779 6.6286 9.2 6.85392C9.87481 6.62783 10.6178 6.49249 11.3822 6.49249C12.1696 6.49249 12.8896 6.62783 13.5644 6.85392C13.7666 6.62783 14.577 5.74733 15.9266 5.74733C16.4666 6.28947 16.2192 7.75749 15.994 8.45805C16.6244 9.1586 16.9844 10.0168 16.9844 10.8981C16.9844 12.9313 15.5666 14.4224 12.5748 14.7385C13.4074 15.1676 13.9926 16.3872 13.9926 17.2908V19.3486C13.9926 19.4163 13.9704 19.4839 13.9704 19.5516C17.48 18.332 20 14.9891 20 11.0357C20 6.04339 15.9726 2 11 2Z" />
    </g>
</svg>