<svg width="290" height="150" viewBox="0 0 290 150" class="max-tablet:w-full" fill="none"
    xmlns="http://www.w3.org/2000/svg">
    <g clip-path="url(#clip0_886_319647)">
        <g>
            <rect x="5" y="25" width="279" height="88"
                class="stroke-[#505967] transition duration-300 ease-out group-hover:stroke-[#4B8BFF] group-data-[active=true]:stroke-[#4B8BFF]"
                stroke-width="0.5" stroke-linecap="round" stroke-dasharray="4 4"></rect>
            <rect x="1" y="20" width="9" height="9" rx="2"
                class="fill-[#26282D] stroke-[#505967] transition duration-300 ease-out group-hover:stroke-[#4B8BFF] group-data-[active=true]:stroke-[#4B8BFF]"
                stroke-width="0.5"></rect>
            <rect x="279" y="20" width="9" height="9" rx="2"
                class="fill-[#26282D] stroke-[#505967] transition duration-300 ease-out group-hover:stroke-[#4B8BFF] group-data-[active=true]:stroke-[#4B8BFF]"
                stroke-width="0.5"></rect>
            <rect x="1" y="108" width="9" height="9" rx="2"
                class="fill-[#26282D] stroke-[#505967] transition duration-300 ease-out group-hover:stroke-[#4B8BFF] group-data-[active=true]:stroke-[#4B8BFF]"
                stroke-width="0.5"></rect>
            <rect x="279" y="108" width="9" height="9" rx="2"
                class="fill-[#26282D] stroke-[#505967] transition duration-300 ease-out group-hover:stroke-[#4B8BFF] group-data-[active=true]:stroke-[#4B8BFF]"
                stroke-width="0.5"></rect>
        </g>
        <g
            class="translate-y-0px transform transition duration-300 ease-out group-hover:translate-y-[-6px] group-data-[active=true]:translate-y-[-6px]">
            <g>
                <rect x="53" y="10" width="183" height="34" rx="6" fill="#26282D"></rect>
                <rect x="53.25" y="10.25" width="182.5" height="33.5" rx="5.75" stroke="#505967"
                    stroke-width="0.5"></rect>
            </g>
            <rect x="83" y="24" width="34" height="6" rx="3" fill="#505967"
                class="transition-all duration-300 group-hover:w-[64px] group-data-[active=true]:w-[64px]"></rect>
            <path fill-rule="evenodd" clip-rule="evenodd"
                d="M63.8292 23.6702C63.7256 23.8835 63.668 24.1202 63.668 24.3694V29.6313C63.668 30.5715 64.4888 31.3337 65.5013 31.3337H72.5013C73.5138 31.3337 74.3346 30.5715 74.3346 29.6313V24.3694C74.3346 24.1202 74.277 23.8835 74.1734 23.6702L69.3371 27.5522C69.1465 27.7051 68.8561 27.7051 68.6655 27.5522L63.8292 23.6702ZM73.5516 22.9739C73.2542 22.7805 72.892 22.667 72.5013 22.667H65.5013C65.1106 22.667 64.7484 22.7805 64.451 22.9739L69.0013 26.6263L73.5516 22.9739Z"
                fill="#6B9FFF"
                class="transition duration-300 ease-out group-hover:fill-[#6F7988] group-data-[active=true]:fill-[#6F7988]"></path>
            <g
                class="transition duration-300 ease-out group-hover:opacity-100 group-data-[active=true]:opacity-100">
                <path
                    d="M219.25 22.0625C219.25 24.1336 218.134 26 216.062 26C218.134 26 219.25 27.8664 219.25 29.9375C219.25 27.8664 220.366 26 222.437 26C220.366 26 219.25 24.1336 219.25 22.0625Z"
                    fill="#505967"
                    class="transition duration-300 ease-out group-hover:fill-[#505967] group-data-[active=true]:fill-[#505967]"></path>
                <path
                    d="M214 28.0625C214 29.3051 212.805 30.5 211.562 30.5C212.805 30.5 214 31.6949 214 32.9375C214 31.6949 215.195 30.5 216.437 30.5C215.195 30.5 214 29.3051 214 28.0625Z"
                    fill="#505967"
                    class="transition duration-300 ease-out group-hover:fill-[#505967] group-data-[active=true]:fill-[#505967]"></path>
                <path
                    d="M219.25 22.0625C219.25 24.1336 218.134 26 216.062 26C218.134 26 219.25 27.8664 219.25 29.9375C219.25 27.8664 220.366 26 222.437 26C220.366 26 219.25 24.1336 219.25 22.0625Z"
                    stroke="#505967"
                    class="transition duration-300 ease-out group-hover:stroke-[#505967] group-data-[active=true]:stroke-[#505967]"
                    stroke-width="1.35" stroke-linecap="round" stroke-linejoin="round"></path>
                <path
                    d="M214 28.0625C214 29.3051 212.805 30.5 211.562 30.5C212.805 30.5 214 31.6949 214 32.9375C214 31.6949 215.195 30.5 216.437 30.5C215.195 30.5 214 29.3051 214 28.0625Z"
                    stroke="#505967"
                    class="transition duration-300 ease-out group-hover:stroke-[#505967] group-data-[active=true]:stroke-[#505967]"
                    stroke-width="1.35" stroke-linecap="round" stroke-linejoin="round"></path>
            </g>
        </g>
        <g
            class="translate-y-0px transform transition duration-300 ease-out group-hover:translate-y-[6px] group-data-[active=true]:translate-y-[6px]">
            <g>
                <rect x="53" y="92" width="183" height="34" rx="6" fill="#26282D"></rect>
                <rect x="53.25" y="92.25" width="182.5" height="33.5" rx="5.75" stroke="#505967"
                    stroke-width="0.5"></rect>
            </g>
            <rect x="83" y="106" width="44" height="6" rx="3" fill="#505967"
                class="transition-all duration-300 group-hover:w-[64px] group-data-[active=true]:w-[64px]"></rect>
            <path fill-rule="evenodd" clip-rule="evenodd"
                d="M68.7173 114.246C68.7174 114.247 68.7175 114.247 68.9987 113.833L68.7173 114.246ZM69.2804 114.246L69.2813 114.246L69.2843 114.244L69.2947 114.236L69.3326 114.21C69.3652 114.187 69.4121 114.154 69.4714 114.111C69.5899 114.025 69.7579 113.9 69.9589 113.742C70.3601 113.426 70.8969 112.975 71.4356 112.437C71.9726 111.9 72.5227 111.264 72.9412 110.578C73.3574 109.895 73.6654 109.127 73.6654 108.333C73.6654 105.714 71.4743 103.667 68.9987 103.667C66.5231 103.667 64.332 105.714 64.332 108.333C64.332 109.127 64.64 109.895 65.0562 110.578C65.4747 111.264 66.0248 111.9 66.5618 112.437C67.1005 112.975 67.6373 113.426 68.0385 113.742C68.2395 113.9 68.4075 114.025 68.526 114.111C68.5853 114.154 68.6322 114.187 68.6648 114.21L68.7027 114.236L68.7131 114.244L68.7161 114.246L68.7173 114.246C68.887 114.362 69.1107 114.362 69.2804 114.246ZM68.9987 113.833L69.2804 114.246C69.2803 114.246 69.2799 114.247 68.9987 113.833ZM67.166 108.333C67.166 107.32 67.9868 106.5 68.9993 106.5C70.0119 106.5 70.8327 107.32 70.8327 108.333C70.8327 109.345 70.0119 110.166 68.9993 110.166C67.9868 110.166 67.166 109.345 67.166 108.333Z"
                fill="#6B9FFF"
                class="transition duration-300 ease-out group-hover:fill-[#6F7988] group-data-[active=true]:fill-[#6F7988]"></path>
            <g
                class="transition duration-300 ease-out group-hover:opacity-100 group-data-[active=true]:opacity-100">
                <path
                    d="M219.25 104.062C219.25 106.134 218.134 108 216.062 108C218.134 108 219.25 109.866 219.25 111.937C219.25 109.866 220.366 108 222.437 108C220.366 108 219.25 106.134 219.25 104.062Z"
                    fill="#505967"
                    class="transition duration-300 ease-out group-hover:fill-[#505967] group-data-[active=true]:fill-[#505967]"></path>
                <path
                    d="M214 110.062C214 111.305 212.805 112.5 211.562 112.5C212.805 112.5 214 113.695 214 114.937C214 113.695 215.195 112.5 216.437 112.5C215.195 112.5 214 111.305 214 110.062Z"
                    fill="#505967"
                    class="transition duration-300 ease-out group-hover:fill-[#505967] group-data-[active=true]:fill-[#505967]"></path>
                <path
                    d="M219.25 104.062C219.25 106.134 218.134 108 216.062 108C218.134 108 219.25 109.866 219.25 111.937C219.25 109.866 220.366 108 222.437 108C220.366 108 219.25 106.134 219.25 104.062Z"
                    stroke="#505967"
                    class="transition duration-300 ease-out group-hover:stroke-[#505967] group-data-[active=true]:stroke-[#505967]"
                    stroke-width="1.35" stroke-linecap="round" stroke-linejoin="round"></path>
                <path
                    d="M214 110.062C214 111.305 212.805 112.5 211.562 112.5C212.805 112.5 214 113.695 214 114.937C214 113.695 215.195 112.5 216.437 112.5C215.195 112.5 214 111.305 214 110.062Z"
                    stroke="#505967"
                    class="transition duration-300 ease-out group-hover:stroke-[#505967] group-data-[active=true]:stroke-[#505967]"
                    stroke-width="1.35" stroke-linecap="round" stroke-linejoin="round"></path>
            </g>
        </g>
        <g>
            <g>
                <rect x="53" y="51" width="183" height="34" rx="6" fill="#26282D"></rect>
                <rect x="53.25" y="51.25" width="182.5" height="33.5" rx="5.75" stroke="#505967"
                    stroke-width="0.5"></rect>
            </g>
            <rect x="83" y="65" width="56" height="6" rx="3" fill="#505967"
                class="transition-all duration-300 group-hover:w-[49px] group-hover:fill-[#4B8BFF] group-data-[active=true]:w-[49px] group-data-[active=true]:fill-[#4B8BFF]"></rect>
            <g>
                <path
                    d="M64.168 72.8332L67.0013 72.1666L73.1966 65.9713C73.4569 65.711 73.4569 65.2888 73.1966 65.0285L71.9727 63.8046C71.7124 63.5443 71.2902 63.5443 71.0299 63.8046L64.8346 69.9999L64.168 72.8332Z"
                    fill="#6F7988" stroke="#6F7988"
                    class="transition duration-300 ease-out group-hover:fill-[#4B8BFF] group-hover:stroke-[#4B8BFF] group-data-[active=true]:fill-[#4B8BFF] group-data-[active=true]:stroke-[#4B8BFF]"
                    stroke-width="1.2" stroke-linecap="round" stroke-linejoin="round"></path>
                <path d="M73.8346 72.833H70.168" stroke="#6F7988"
                    class="transition duration-300 ease-out group-hover:stroke-[#6B9FFF] group-data-[active=true]:stroke-[#6B9FFF]"
                    stroke-width="1.2" stroke-linecap="round" stroke-linejoin="round"></path>
            </g>
            <g>
                <path
                    d="M219.25 63.0625C219.25 65.1336 218.134 67 216.062 67C218.134 67 219.25 68.8664 219.25 70.9375C219.25 68.8664 220.366 67 222.437 67C220.366 67 219.25 65.1336 219.25 63.0625Z"
                    fill="#9098A0"
                    class="transition duration-300 ease-out group-hover:fill-[#4B8BFF] group-data-[active=true]:fill-[#4B8BFF]"></path>
                <path
                    d="M214 69.0625C214 70.3051 212.805 71.5 211.562 71.5C212.805 71.5 214 72.6949 214 73.9375C214 72.6949 215.195 71.5 216.437 71.5C215.195 71.5 214 70.3051 214 69.0625Z"
                    fill="#9098A0"
                    class="transition duration-300 ease-out group-hover:fill-[#4B8BFF] group-data-[active=true]:fill-[#4B8BFF]"></path>
                <path
                    d="M219.25 63.0625C219.25 65.1336 218.134 67 216.062 67C218.134 67 219.25 68.8664 219.25 70.9375C219.25 68.8664 220.366 67 222.437 67C220.366 67 219.25 65.1336 219.25 63.0625Z"
                    stroke="#9098A0"
                    class="transition duration-300 ease-out group-hover:stroke-[#4B8BFF] group-data-[active=true]:stroke-[#4B8BFF]"
                    stroke-width="1.35" stroke-linecap="round" stroke-linejoin="round"></path>
                <path
                    d="M214 69.0625C214 70.3051 212.805 71.5 211.562 71.5C212.805 71.5 214 72.6949 214 73.9375C214 72.6949 215.195 71.5 216.437 71.5C215.195 71.5 214 70.3051 214 69.0625Z"
                    stroke="#9098A0"
                    class="transition duration-300 ease-out group-hover:stroke-[#4B8BFF] group-data-[active=true]:stroke-[#4B8BFF]"
                    stroke-width="1.35" stroke-linecap="round" stroke-linejoin="round"></path>
            </g>
        </g>
    </g>
</svg>