<svg width="364" height="335" viewBox="0 0 364 335" fill="none" xmlns="http://www.w3.org/2000/svg">
<mask id="mask0_17_228" style="mask-type:alpha" maskUnits="userSpaceOnUse" x="-2" y="-16" width="368" height="368">
<circle cx="182" cy="168" r="184" fill="url(#paint0_radial_17_228)"/>
</mask>
<g mask="url(#mask0_17_228)">
<rect opacity="0.1" x="14.75" y="0.75" width="50.5" height="50.5" rx="15.25" stroke="#F8F8F8" stroke-width="1.5"/>
<rect opacity="0.1" x="14.75" y="56.75" width="50.5" height="50.5" rx="15.25" stroke="#F8F8F8" stroke-width="1.5"/>
<rect opacity="0.1" x="14.75" y="112.75" width="50.5" height="50.5" rx="15.25" stroke="#F8F8F8" stroke-width="1.5"/>
<rect opacity="0.1" x="14.75" y="168.75" width="50.5" height="50.5" rx="15.25" stroke="#F8F8F8" stroke-width="1.5"/>
<rect opacity="0.1" x="14.75" y="224.75" width="50.5" height="50.5" rx="15.25" stroke="#F8F8F8" stroke-width="1.5"/>
<rect opacity="0.1" x="14.75" y="280.75" width="50.5" height="50.5" rx="15.25" stroke="#F8F8F8" stroke-width="1.5"/>
<rect opacity="0.1" x="70.75" y="0.75" width="50.5" height="50.5" rx="15.25" stroke="#F8F8F8" stroke-width="1.5"/>
<path opacity="0.1" d="M70.75 72C70.75 63.5777 77.5777 56.75 86 56.75H106C114.422 56.75 121.25 63.5777 121.25 72V204C121.25 212.422 114.422 219.25 106 219.25H86C77.5777 219.25 70.75 212.422 70.75 204V72Z" stroke="#F8F8F8" stroke-width="1.5"/>
<rect opacity="0.1" x="70.75" y="224.75" width="50.5" height="50.5" rx="15.25" stroke="#F8F8F8" stroke-width="1.5"/>
<rect opacity="0.1" x="70.75" y="280.75" width="50.5" height="50.5" rx="15.25" stroke="#F8F8F8" stroke-width="1.5"/>
<rect opacity="0.1" x="126.75" y="0.75" width="50.5" height="50.5" rx="15.25" stroke="#F8F8F8" stroke-width="1.5"/>
<rect opacity="0.1" x="126.75" y="56.75" width="50.5" height="50.5" rx="15.25" stroke="#F8F8F8" stroke-width="1.5"/>
<path opacity="0.1" d="M126.75 184C126.75 175.578 133.578 168.75 142 168.75H218C226.422 168.75 233.25 175.578 233.25 184V260C233.25 268.422 226.422 275.25 218 275.25H142C133.578 275.25 126.75 268.422 126.75 260V184Z" stroke="#F8F8F8" stroke-width="1.5"/>
<rect opacity="0.1" x="126.75" y="280.75" width="50.5" height="50.5" rx="15.25" stroke="#F8F8F8" stroke-width="1.5"/>
<path opacity="0.1" d="M182.75 16C182.75 7.57765 189.578 0.75 198 0.75H218C226.422 0.75 233.25 7.57766 233.25 16V92C233.25 100.422 226.422 107.25 218 107.25H198C189.578 107.25 182.75 100.422 182.75 92V16Z" stroke="#F8F8F8" stroke-width="1.5"/>
<rect opacity="0.1" x="238.75" y="0.75" width="50.5" height="50.5" rx="15.25" stroke="#F8F8F8" stroke-width="1.5"/>
<rect opacity="0.1" x="238.75" y="56.75" width="50.5" height="50.5" rx="15.25" stroke="#F8F8F8" stroke-width="1.5"/>
<path opacity="0.1" d="M182.75 128C182.75 119.578 189.578 112.75 198 112.75H274C282.422 112.75 289.25 119.578 289.25 128V148C289.25 156.422 282.422 163.25 274 163.25H198C189.578 163.25 182.75 156.422 182.75 148V128Z" stroke="#F8F8F8" stroke-width="1.5"/>
<path opacity="0.1" d="M238.75 184C238.75 175.578 245.578 168.75 254 168.75H274C282.422 168.75 289.25 175.578 289.25 184V260C289.25 268.422 282.422 275.25 274 275.25H254C245.578 275.25 238.75 268.422 238.75 260V184Z" stroke="#F8F8F8" stroke-width="1.5"/>
<path opacity="0.1" d="M182.75 296C182.75 287.578 189.578 280.75 198 280.75H274C282.422 280.75 289.25 287.578 289.25 296V316C289.25 324.422 282.422 331.25 274 331.25H198C189.578 331.25 182.75 324.422 182.75 316V296Z" stroke="#F8F8F8" stroke-width="1.5"/>
<rect opacity="0.1" x="294.75" y="0.75" width="50.5" height="50.5" rx="15.25" stroke="#F8F8F8" stroke-width="1.5"/>
<rect opacity="0.1" x="294.75" y="56.75" width="50.5" height="50.5" rx="15.25" stroke="#F8F8F8" stroke-width="1.5"/>
<rect opacity="0.1" x="294.75" y="112.75" width="50.5" height="50.5" rx="15.25" stroke="#F8F8F8" stroke-width="1.5"/>
<rect opacity="0.1" x="294.75" y="168.75" width="50.5" height="50.5" rx="15.25" stroke="#F8F8F8" stroke-width="1.5"/>
<rect opacity="0.1" x="294.75" y="224.75" width="50.5" height="50.5" rx="15.25" stroke="#F8F8F8" stroke-width="1.5"/>
<rect opacity="0.1" x="294.75" y="280.75" width="50.5" height="50.5" rx="15.25" stroke="#F8F8F8" stroke-width="1.5"/>
<mask id="mask1_17_228" style="mask-type:alpha" maskUnits="userSpaceOnUse" x="70" y="0" width="220" height="276">
<path d="M70.75 72C70.75 63.5777 77.5777 56.75 86 56.75H106C114.422 56.75 121.25 63.5777 121.25 72V204C121.25 212.422 114.422 219.25 106 219.25H86C77.5777 219.25 70.75 212.422 70.75 204V72ZM70.75 240C70.75 231.578 77.5777 224.75 86 224.75H106C114.422 224.75 121.25 231.578 121.25 240V260C121.25 268.422 114.422 275.25 106 275.25H86C77.5777 275.25 70.75 268.422 70.75 260V240ZM126.75 72C126.75 63.5777 133.578 56.75 142 56.75H162C170.422 56.75 177.25 63.5777 177.25 72V92C177.25 100.422 170.422 107.25 162 107.25H142C133.578 107.25 126.75 100.422 126.75 92V72ZM126.75 184C126.75 175.578 133.578 168.75 142 168.75H218C226.422 168.75 233.25 175.578 233.25 184V260C233.25 268.422 226.422 275.25 218 275.25H142C133.578 275.25 126.75 268.422 126.75 260V184ZM182.75 16C182.75 7.57766 189.578 0.75 198 0.75H218C226.422 0.75 233.25 7.57766 233.25 16V92C233.25 100.422 226.422 107.25 218 107.25H198C189.578 107.25 182.75 100.422 182.75 92V16ZM182.75 128C182.75 119.578 189.578 112.75 198 112.75H274C282.422 112.75 289.25 119.578 289.25 128V148C289.25 156.422 282.422 163.25 274 163.25H198C189.578 163.25 182.75 156.422 182.75 148V128Z" stroke="#F8F8F8" stroke-width="1.5"/>
</mask>
<g mask="url(#mask1_17_228)">
<g opacity="0.25" filter="url(#filter0_f_17_228)">
<circle cx="156" cy="167" r="90" fill="#F8F8F8"/>
</g>
</g>
</g>
<g filter="url(#filter1_di_17_228)">
<g clip-path="url(#clip0_17_228)">
<rect opacity="0.4" x="126.75" y="112.75" width="50.5" height="50.5" rx="15.25" stroke="#F8F8F8" stroke-width="1.5"/>
<g filter="url(#filter2_i_17_228)">
<rect x="132" y="118" width="40" height="40" rx="10" fill="#F8F8F8" fill-opacity="0.01"/>
<g opacity="0.1" filter="url(#filter3_i_17_228)">
<path fill-rule="evenodd" clip-rule="evenodd" d="M153 135C153 134.448 152.552 134 152 134C151.448 134 151 134.448 151 135V135.5C151 136.328 150.328 137 149.5 137H149C148.448 137 148 137.448 148 138C148 138.552 148.448 139 149 139H149.5C150.328 139 151 139.672 151 140.5V141C151 141.552 151.448 142 152 142C152.552 142 153 141.552 153 141V140.5C153 139.672 153.672 139 154.5 139H155C155.552 139 156 138.552 156 138C156 137.448 155.552 137 155 137H154.5C153.672 137 153 136.328 153 135.5V135Z" fill="#F8F8F8"/>
</g>
</g>
</g>
</g>
<path d="M169.084 156.183C168.896 156.116 168.705 156.047 168.545 156.006C168.392 155.966 168.097 155.9 167.781 156.01C167.419 156.135 167.135 156.42 167.009 156.782C166.9 157.098 166.966 157.392 167.005 157.545C167.047 157.706 167.116 157.896 167.183 158.084L171.957 171.383C172.041 171.617 172.121 171.841 172.201 172.013C172.268 172.159 172.42 172.478 172.751 172.658C173.114 172.855 173.55 172.861 173.917 172.674C174.253 172.502 174.414 172.187 174.485 172.043C174.569 171.873 174.655 171.651 174.745 171.42L176.894 165.894L182.42 163.745C182.651 163.655 182.873 163.569 183.043 163.485C183.187 163.414 183.502 163.253 183.673 162.918C183.861 162.55 183.855 162.114 183.658 161.752C183.478 161.42 183.159 161.268 183.013 161.201C182.841 161.122 182.617 161.041 182.383 160.957L169.084 156.183Z" fill="#121212" stroke="#F8F8F8" stroke-width="1.5" stroke-linecap="round" stroke-linejoin="round"/>
<defs>
<filter id="filter0_f_17_228" x="26" y="37" width="260" height="260" filterUnits="userSpaceOnUse" color-interpolation-filters="sRGB">
<feFlood flood-opacity="0" result="BackgroundImageFix"/>
<feBlend mode="normal" in="SourceGraphic" in2="BackgroundImageFix" result="shape"/>
<feGaussianBlur stdDeviation="20" result="effect1_foregroundBlur_17_228"/>
</filter>
<filter id="filter1_di_17_228" x="118" y="112" width="68" height="92" filterUnits="userSpaceOnUse" color-interpolation-filters="sRGB">
<feFlood flood-opacity="0" result="BackgroundImageFix"/>
<feColorMatrix in="SourceAlpha" type="matrix" values="0 0 0 0 0 0 0 0 0 0 0 0 0 0 0 0 0 0 127 0" result="hardAlpha"/>
<feMorphology radius="16" operator="erode" in="SourceAlpha" result="effect1_dropShadow_17_228"/>
<feOffset dy="32"/>
<feGaussianBlur stdDeviation="12"/>
<feComposite in2="hardAlpha" operator="out"/>
<feColorMatrix type="matrix" values="0 0 0 0 0 0 0 0 0 0 0 0 0 0 0 0 0 0 0.4 0"/>
<feBlend mode="multiply" in2="BackgroundImageFix" result="effect1_dropShadow_17_228"/>
<feBlend mode="normal" in="SourceGraphic" in2="effect1_dropShadow_17_228" result="shape"/>
<feColorMatrix in="SourceAlpha" type="matrix" values="0 0 0 0 0 0 0 0 0 0 0 0 0 0 0 0 0 0 127 0" result="hardAlpha"/>
<feOffset/>
<feGaussianBlur stdDeviation="4"/>
<feComposite in2="hardAlpha" operator="arithmetic" k2="-1" k3="1"/>
<feColorMatrix type="matrix" values="0 0 0 0 0.972549 0 0 0 0 0.972549 0 0 0 0 0.972549 0 0 0 0.25 0"/>
<feBlend mode="normal" in2="shape" result="effect2_innerShadow_17_228"/>
</filter>
<filter id="filter2_i_17_228" x="132" y="118" width="40" height="40" filterUnits="userSpaceOnUse" color-interpolation-filters="sRGB">
<feFlood flood-opacity="0" result="BackgroundImageFix"/>
<feBlend mode="normal" in="SourceGraphic" in2="BackgroundImageFix" result="shape"/>
<feColorMatrix in="SourceAlpha" type="matrix" values="0 0 0 0 0 0 0 0 0 0 0 0 0 0 0 0 0 0 127 0" result="hardAlpha"/>
<feOffset/>
<feGaussianBlur stdDeviation="4"/>
<feComposite in2="hardAlpha" operator="arithmetic" k2="-1" k3="1"/>
<feColorMatrix type="matrix" values="0 0 0 0 0.972549 0 0 0 0 0.972549 0 0 0 0 0.972549 0 0 0 0.25 0"/>
<feBlend mode="normal" in2="shape" result="effect1_innerShadow_17_228"/>
</filter>
<filter id="filter3_i_17_228" x="148" y="134" width="8" height="8" filterUnits="userSpaceOnUse" color-interpolation-filters="sRGB">
<feFlood flood-opacity="0" result="BackgroundImageFix"/>
<feBlend mode="normal" in="SourceGraphic" in2="BackgroundImageFix" result="shape"/>
<feColorMatrix in="SourceAlpha" type="matrix" values="0 0 0 0 0 0 0 0 0 0 0 0 0 0 0 0 0 0 127 0" result="hardAlpha"/>
<feOffset/>
<feGaussianBlur stdDeviation="4"/>
<feComposite in2="hardAlpha" operator="arithmetic" k2="-1" k3="1"/>
<feColorMatrix type="matrix" values="0 0 0 0 0.972549 0 0 0 0 0.972549 0 0 0 0 0.972549 0 0 0 0.25 0"/>
<feBlend mode="normal" in2="shape" result="effect1_innerShadow_17_228"/>
</filter>
<radialGradient id="paint0_radial_17_228" cx="0" cy="0" r="1" gradientUnits="userSpaceOnUse" gradientTransform="translate(182 168) rotate(90) scale(184)">
<stop stop-color="#D9D9D9"/>
<stop offset="1" stop-color="#737373" stop-opacity="0"/>
</radialGradient>
<clipPath id="clip0_17_228">
<rect x="126" y="112" width="52" height="52" rx="16" fill="white"/>
</clipPath>
</defs>
</svg>
