<svg width="123" height="24" viewBox="0 0 123 24" fill="none" xmlns="http://www.w3.org/2000/svg">
<path fill-rule="evenodd" clip-rule="evenodd" d="M14.8218 8.915C14.8218 9.89973 13.4029 10.4311 12.0683 10.4311C10.7335 10.4311 9.31498 9.89974 9.31512 8.91501V7.0566C9.31512 6.93355 9.33715 6.81753 9.37852 6.70888C9.66821 5.94731 10.9004 5.54034 12.0681 5.54034H12.0684C12.1907 5.54034 12.3135 5.54486 12.4359 5.55373H12.4362C12.559 5.5626 12.6802 5.576 12.8013 5.59357C13.1001 5.63727 13.3891 5.70808 13.651 5.80451C13.6933 5.82025 13.7351 5.83665 13.7759 5.85356C13.7841 5.85708 13.7925 5.86043 13.8009 5.86394C13.8379 5.87968 13.8742 5.89625 13.9097 5.91299C13.9167 5.91654 13.9237 5.9199 13.9309 5.92334C13.9356 5.92559 13.9404 5.92786 13.9453 5.93024C13.9772 5.94597 14.0087 5.96221 14.0396 5.97895C14.0438 5.98124 14.048 5.98353 14.0522 5.98583C14.0627 5.9916 14.0734 5.99741 14.0838 6.00339C14.111 6.0188 14.1379 6.03453 14.1641 6.05094C14.1809 6.06149 14.1979 6.07254 14.2143 6.08359C14.217 6.0854 14.2197 6.08721 14.2224 6.08904C14.2422 6.1022 14.2623 6.11563 14.2813 6.12946C14.2982 6.14171 14.3144 6.15435 14.3305 6.16692L14.337 6.17198C14.3412 6.17529 14.3454 6.17859 14.3496 6.18189C14.3634 6.19278 14.3773 6.20366 14.3905 6.21484C14.412 6.23308 14.4323 6.252 14.4525 6.27109C14.4577 6.27609 14.4632 6.28101 14.4687 6.28595C14.476 6.29257 14.4834 6.29924 14.4905 6.30624C14.522 6.33822 14.5516 6.3707 14.5791 6.40435C14.6177 6.45156 14.652 6.50011 14.682 6.551C14.742 6.65245 14.7838 6.76144 14.8054 6.87712C14.8162 6.93554 14.8218 6.99497 14.8218 7.05658V8.915ZM12.0687 9.85267C13.4643 9.85267 14.3549 9.29737 14.3549 8.915V7.92513C13.8281 8.34882 12.9318 8.57215 12.0687 8.57248V9.85267ZM9.81862 6.91495C9.8074 6.93788 9.79793 6.96082 9.79199 6.98308C9.78523 7.00802 9.78172 7.03283 9.78199 7.0566C9.78199 7.07753 9.78618 7.09912 9.79118 7.12122C9.79271 7.12798 9.79494 7.13459 9.79722 7.14133L9.79767 7.14265C9.8024 7.15772 9.80889 7.17328 9.81592 7.18869C9.8172 7.19135 9.81841 7.19407 9.81962 7.19682C9.82201 7.20222 9.82446 7.20776 9.82768 7.2133C9.83809 7.23238 9.85053 7.25163 9.86445 7.27072C9.875 7.28494 9.88716 7.29951 9.89946 7.31407C9.90331 7.31883 9.9074 7.32349 9.91155 7.32821C9.91266 7.32946 9.91377 7.33072 9.91487 7.33199C10.0527 7.48517 10.2958 7.63902 10.6266 7.76039C10.6326 7.76263 10.6389 7.76483 10.6452 7.76705C10.6511 7.76914 10.6571 7.77126 10.6631 7.77345C10.7246 7.79555 10.7898 7.81597 10.8575 7.83539C10.8614 7.83655 10.8653 7.83773 10.8691 7.8389C10.8763 7.84111 10.8834 7.8433 10.8909 7.84527C10.97 7.86703 11.0519 7.88695 11.1381 7.90453C11.1424 7.90535 11.1469 7.90611 11.1514 7.90687C11.157 7.90781 11.1627 7.90877 11.1681 7.90989C11.2411 7.92395 11.3175 7.93668 11.3956 7.94772C11.4131 7.9502 11.4306 7.95232 11.4482 7.95446C11.4581 7.95565 11.468 7.95684 11.4778 7.9581C11.5446 7.9658 11.6132 7.97267 11.6828 7.97803C11.693 7.97874 11.7031 7.97955 11.7133 7.98035C11.7317 7.9818 11.7501 7.98325 11.7688 7.98422C11.8664 7.99025 11.9656 7.9941 12.0689 7.9941C13.4643 7.9941 14.3553 7.43862 14.3553 7.05608C14.3553 6.98443 14.3238 6.90675 14.2638 6.82757C14.2424 6.79894 14.2159 6.77081 14.1874 6.74219C14.1804 6.73529 14.1732 6.72868 14.1659 6.72196L14.1639 6.72009C14.1343 6.6928 14.1024 6.66518 14.0659 6.63806C14.0644 6.63722 14.0635 6.63621 14.0625 6.63538C14.0248 6.60775 13.9828 6.58013 13.938 6.55301C13.9272 6.54648 13.916 6.53995 13.9046 6.53342C13.8591 6.50664 13.8112 6.48035 13.7596 6.45541C13.7586 6.45491 13.7577 6.45457 13.7571 6.45424C13.7031 6.42845 13.6453 6.40368 13.5853 6.37991C13.5787 6.37739 13.5719 6.37474 13.5652 6.37209C13.5594 6.3698 13.5536 6.36752 13.5479 6.36534C13.4236 6.3183 13.287 6.27578 13.1383 6.23978C13.1256 6.2366 13.1126 6.23359 13.0993 6.23057C12.9117 6.18704 12.7061 6.15373 12.4839 6.13532C12.3512 6.1241 12.2124 6.11807 12.0683 6.11807C11.9311 6.11807 11.7997 6.12443 11.6729 6.13448H11.6722C11.6058 6.13984 11.5412 6.14637 11.4778 6.15407C11.4762 6.15419 11.4745 6.15441 11.4727 6.15465C11.472 6.15473 11.4714 6.15482 11.4707 6.1549C11.4074 6.1626 11.3459 6.17131 11.2859 6.18135C11.2844 6.18135 11.283 6.18169 11.2815 6.18202C10.8626 6.25217 10.5183 6.37354 10.2657 6.51434C10.262 6.51637 10.2584 6.51834 10.2548 6.52029C10.2492 6.52331 10.2436 6.52632 10.2382 6.52957C10.2139 6.5432 10.1914 6.55746 10.1688 6.57173L10.1659 6.5736C10.16 6.57758 10.154 6.58141 10.148 6.58523C10.1415 6.58945 10.1349 6.59365 10.1285 6.59804C10.1087 6.61143 10.0901 6.62516 10.0722 6.63855C10.0586 6.64893 10.0456 6.65914 10.0329 6.66919C10.0175 6.68174 10.0029 6.6938 9.98895 6.70635C9.9757 6.71824 9.96326 6.73013 9.95123 6.74201C9.93974 6.75306 9.92852 6.76394 9.91838 6.77533C9.90581 6.78872 9.89472 6.80211 9.88445 6.8155L9.88205 6.81843C9.8747 6.82736 9.86727 6.8364 9.86093 6.8453C9.85011 6.86054 9.84146 6.87561 9.83281 6.89084C9.83103 6.89396 9.82909 6.89709 9.82716 6.90021C9.82413 6.90513 9.8211 6.91004 9.81862 6.91495Z" fill="url(#paint0_linear_73_4967)"/>
<path fill-rule="evenodd" clip-rule="evenodd" d="M24.0083 6.25934C24.0103 6.26511 24.0123 6.27092 24.0137 6.27693L24.0136 6.27714C24.0191 6.30242 24.023 6.32854 24.023 6.35566V18.2417C24.023 18.3619 23.9629 18.4697 23.8709 18.5114L12.1493 23.9813C12.1482 23.9821 12.1467 23.9821 12.1452 23.9824C12.1446 23.9825 12.144 23.9827 12.1434 23.9831C12.1186 23.9938 12.0931 24 12.0674 24C12.0412 24 12.0155 23.9928 11.9905 23.9824C11.989 23.9816 11.9875 23.9816 11.986 23.9813C11.9853 23.9812 11.9846 23.981 11.984 23.9806L0.149916 18.3706C0.0597518 18.328 0 18.2202 0 18.1007V6.21401C0 6.21353 6.24805e-05 6.21308 0.000127368 6.21262C0.000197454 6.21212 0.000270348 6.2116 0.000270348 6.211C0.000540626 6.18488 0.00405528 6.1596 0.00986816 6.13516C0.0117294 6.12693 0.0145065 6.11902 0.0171699 6.11143L0.017303 6.11105C0.0225754 6.09414 0.0285232 6.07824 0.0362287 6.06284C0.0402839 6.0548 0.0446098 6.04693 0.0494765 6.03957C0.0581282 6.02551 0.0682669 6.01278 0.0790814 6.0009C0.0806852 5.99906 0.0822058 5.99724 0.0837031 5.99544C0.0872538 5.99119 0.0906737 5.98709 0.0947624 5.98332C0.0956531 5.98242 0.0964521 5.98144 0.0972539 5.98045C0.098399 5.97905 0.0995496 5.97764 0.100981 5.97645C0.116796 5.96306 0.133829 5.95201 0.151673 5.94398L3.39739 4.42974V4.25095C3.39739 4.12807 3.41943 4.01205 3.46079 3.90323C3.75049 3.14201 4.98297 2.73503 6.15039 2.73503H6.15066C6.273 2.73503 6.39574 2.73955 6.51822 2.74842H6.51849C6.64124 2.7573 6.76304 2.77069 6.88362 2.78827C6.89559 2.7901 6.9074 2.79228 6.91919 2.79445C6.92896 2.79626 6.9387 2.79806 6.94851 2.79965C6.94317 2.79873 6.93784 2.79771 6.93251 2.79669C6.92421 2.7951 6.91589 2.79351 6.90741 2.79229L9.25852 1.69506V1.51626C9.25852 1.39321 9.28082 1.2772 9.32219 1.16855C9.61188 0.406977 10.8441 0 12.0118 0H12.0121C12.1343 0 12.2573 0.00452015 12.3796 0.0135605H12.3799C12.5026 0.0224332 12.6239 0.0358261 12.745 0.0534044C13.0438 0.0971016 13.3328 0.167915 13.5946 0.264343C13.637 0.280079 13.6787 0.296485 13.7196 0.313394C13.728 0.316827 13.7358 0.320101 13.744 0.323527L13.7446 0.323773C13.7816 0.339509 13.8178 0.356082 13.8534 0.372823C13.859 0.375691 13.8648 0.378438 13.8707 0.381202C13.8768 0.384086 13.8829 0.386989 13.8889 0.390066C13.9208 0.405802 13.9523 0.422041 13.9833 0.438782C13.9979 0.446483 14.0129 0.454854 14.0275 0.463224C14.0547 0.478627 14.0816 0.494364 14.1078 0.51077C14.1246 0.521317 14.1416 0.532366 14.1579 0.543415C14.1808 0.558314 14.2034 0.573548 14.225 0.589285C14.2419 0.601522 14.2581 0.614148 14.2742 0.626707L14.2807 0.631808C14.2849 0.635109 14.289 0.638401 14.2932 0.641693C14.3071 0.65259 14.3209 0.663479 14.3342 0.674665C14.3557 0.692913 14.376 0.71183 14.3961 0.730915C14.4014 0.73592 14.4068 0.740834 14.4123 0.745774C14.4197 0.752399 14.4271 0.75907 14.4341 0.766071C14.4656 0.798047 14.4956 0.830526 14.5228 0.864176C14.5613 0.911387 14.5957 0.959936 14.6257 1.01083C14.6857 1.11228 14.7275 1.22093 14.7491 1.33695C14.7599 1.39504 14.7655 1.4548 14.7655 1.51641L14.7653 1.76703L17.0986 2.87313C17.3699 2.82793 17.6513 2.80416 17.9286 2.80416H17.9291C18.0517 2.80416 18.1739 2.80868 18.297 2.81755C18.4194 2.82642 18.5415 2.83981 18.6621 2.85739C18.9614 2.90109 19.2499 2.9719 19.5117 3.06833C19.554 3.08407 19.5958 3.10081 19.6366 3.11772L19.6405 3.11927C19.6478 3.12223 19.6548 3.1251 19.6616 3.1281C19.6987 3.14383 19.7349 3.1604 19.7705 3.17715C19.7761 3.18001 19.7819 3.18276 19.7877 3.18552C19.7938 3.18841 19.8 3.19131 19.806 3.19439C19.8384 3.21012 19.8694 3.22636 19.9004 3.2431C19.915 3.25097 19.93 3.25934 19.9446 3.26771C19.9717 3.28312 19.9992 3.29885 20.0249 3.31526C20.0422 3.32581 20.0587 3.33686 20.075 3.34791C20.0979 3.36297 20.1204 3.37821 20.1421 3.39394C20.1577 3.40499 20.1721 3.41636 20.1866 3.42771C20.1903 3.43063 20.194 3.43355 20.1978 3.43646C20.2019 3.43975 20.2061 3.44303 20.2102 3.4463C20.2241 3.45722 20.238 3.46812 20.2513 3.47932C20.2728 3.49757 20.2931 3.51649 20.3132 3.53557C20.3173 3.53935 20.3215 3.54308 20.3257 3.5468C20.3345 3.55463 20.3432 3.56245 20.3512 3.57073C20.3827 3.6027 20.4127 3.63518 20.4399 3.66883C20.4784 3.71604 20.5131 3.76493 20.5428 3.81549C20.6028 3.9171 20.6451 4.02576 20.6667 4.14177C20.677 4.19986 20.6825 4.25963 20.6825 4.32124V4.57285L23.872 6.08507L23.8724 6.08536L23.873 6.08541L23.8735 6.08574L23.8739 6.08604L23.8744 6.08641C23.8912 6.09445 23.9078 6.10466 23.9227 6.11772C23.9249 6.11989 23.9268 6.12291 23.9292 6.12492C23.9347 6.13027 23.9396 6.1363 23.9446 6.14249C23.9554 6.15472 23.9658 6.16744 23.9742 6.1815C23.9791 6.1892 23.9831 6.19657 23.9875 6.20494C23.9949 6.22017 24.0012 6.23658 24.0063 6.25349C24.0069 6.25544 24.0076 6.25739 24.0083 6.25934ZM17.3316 3.4204C17.2686 3.4281 17.2071 3.43697 17.147 3.44685C17.146 3.44685 17.145 3.44702 17.1441 3.44718C17.1437 3.44725 17.1433 3.44732 17.143 3.44737C16.7238 3.51718 16.3796 3.63855 16.1271 3.77935C16.1219 3.78224 16.1167 3.78508 16.1116 3.7879C16.1075 3.79013 16.1035 3.79236 16.0995 3.79458C16.0736 3.80915 16.0503 3.82405 16.0272 3.83895C16.0148 3.84732 16.0021 3.85536 15.9898 3.86339C15.97 3.87678 15.9514 3.89051 15.9335 3.9039C15.9199 3.91428 15.9065 3.9245 15.8942 3.93454C15.8785 3.9471 15.8642 3.95915 15.85 3.97171C15.837 3.98359 15.8248 3.99548 15.8125 4.00736C15.8013 4.01841 15.79 4.02963 15.7797 4.04068C15.7674 4.05407 15.756 4.06746 15.7458 4.08086C15.7376 4.0909 15.7293 4.10078 15.7222 4.11082C15.7114 4.12606 15.7025 4.14113 15.6941 4.15636C15.6928 4.15859 15.6914 4.16083 15.69 4.16306C15.6863 4.16886 15.6827 4.17467 15.6799 4.18047C15.6687 4.2034 15.6592 4.22634 15.6533 4.2486C15.6468 4.27354 15.643 4.29799 15.643 4.32209C15.643 4.34336 15.6469 4.36462 15.6519 4.38671C15.6536 4.39391 15.6556 4.40094 15.6584 4.40814C15.663 4.42321 15.6697 4.43878 15.6767 4.45418C15.678 4.45684 15.6792 4.45956 15.6804 4.46232C15.6828 4.46771 15.6852 4.47325 15.6884 4.47879C15.6987 4.49787 15.7113 4.51712 15.7249 4.53621C15.7349 4.55044 15.7472 4.565 15.76 4.57957C15.7645 4.58559 15.7698 4.59145 15.7748 4.59748C15.9127 4.75066 16.1563 4.90451 16.4871 5.02589C16.4944 5.02852 16.5019 5.03122 16.5096 5.03399C16.5141 5.03562 16.5186 5.03727 16.5232 5.03894C16.5852 5.06071 16.6501 5.08147 16.7176 5.10089C16.7207 5.10181 16.7239 5.10275 16.727 5.10369C16.7352 5.10614 16.7433 5.10859 16.7515 5.11076C16.8303 5.13253 16.9125 5.15245 16.9988 5.17003C17.0034 5.17102 17.0084 5.17185 17.0134 5.17267C17.0185 5.17352 17.0236 5.17437 17.0284 5.17538C17.1018 5.18961 17.178 5.20234 17.2563 5.21339C17.2767 5.21634 17.2978 5.21889 17.3188 5.22143C17.3252 5.22221 17.3316 5.22298 17.3379 5.22376C17.4047 5.23147 17.4733 5.23833 17.5431 5.24369C17.5534 5.2444 17.5635 5.24521 17.5737 5.24601C17.592 5.24746 17.6104 5.24891 17.6294 5.24988C17.7264 5.25591 17.8259 5.25976 17.9292 5.25976C19.3251 5.25976 20.2157 4.70428 20.2157 4.32174C20.2157 4.24976 20.1842 4.17208 20.1246 4.09289C20.1029 4.06426 20.0762 4.03614 20.0476 4.00751C20.0399 3.99998 20.0325 3.99278 20.0245 3.98541C19.9944 3.95812 19.9625 3.9305 19.926 3.90338C19.925 3.90254 19.9241 3.90154 19.9231 3.9007C19.885 3.87274 19.843 3.84546 19.7982 3.81834L19.7928 3.81506C19.7838 3.80963 19.7748 3.80419 19.7654 3.79875C19.7196 3.77213 19.6717 3.74568 19.6201 3.72074C19.6196 3.72049 19.6192 3.72029 19.6189 3.7201C19.6185 3.71991 19.6181 3.71974 19.6176 3.71956C19.564 3.69395 19.5058 3.66934 19.4458 3.64523C19.4401 3.6431 19.4345 3.64085 19.4288 3.6386C19.4221 3.63592 19.4153 3.63322 19.4084 3.63067C19.2841 3.58362 19.1475 3.5411 18.9988 3.50511C18.9861 3.50193 18.9736 3.49891 18.9604 3.4959C18.7722 3.45237 18.5674 3.41906 18.3449 3.40064C18.2123 3.38943 18.0734 3.3834 17.9293 3.3834C17.7924 3.3834 17.661 3.3901 17.5339 3.40014H17.5334C17.467 3.40533 17.4024 3.41186 17.339 3.41956C17.3373 3.41968 17.3357 3.41988 17.3339 3.4201C17.3332 3.4202 17.3324 3.4203 17.3316 3.4204ZM20.2154 6.17985V5.19011C19.6886 5.61381 18.7926 5.83735 17.9295 5.83768V7.11787C19.3248 7.11787 20.2154 6.56222 20.2154 6.17985ZM9.76245 1.3748C9.75123 1.39773 9.74177 1.42066 9.73582 1.44293C9.72906 1.46787 9.72554 1.49251 9.72541 1.51645C9.72541 1.53738 9.7296 1.55897 9.7346 1.58107C9.73612 1.58783 9.73836 1.59443 9.74064 1.60117L9.74109 1.6025C9.74582 1.61756 9.75231 1.63313 9.75934 1.64853C9.76063 1.65123 9.76188 1.65398 9.76315 1.65677C9.76558 1.66213 9.76808 1.66764 9.7711 1.67314C9.78151 1.69223 9.79394 1.71148 9.80787 1.73056C9.81745 1.74383 9.82891 1.7574 9.84039 1.77098L9.84288 1.77392C9.84775 1.77995 9.85275 1.78581 9.85802 1.79184C9.99589 1.94502 10.2389 2.09887 10.5697 2.22024C10.5749 2.22211 10.5801 2.22394 10.5853 2.22578C10.5922 2.22824 10.5992 2.23072 10.6062 2.2333C10.6678 2.2554 10.7329 2.27582 10.8006 2.29524C10.8046 2.2964 10.8084 2.29757 10.8122 2.29874C10.8194 2.30096 10.8266 2.30314 10.834 2.30512C10.9131 2.32688 10.995 2.3468 11.0813 2.36438C11.0871 2.36556 11.093 2.36656 11.0989 2.36756C11.103 2.36827 11.1072 2.36898 11.1113 2.36974C11.1846 2.38397 11.2607 2.39669 11.3388 2.40774C11.3562 2.41021 11.3738 2.41234 11.3914 2.41447C11.4012 2.41566 11.4111 2.41686 11.421 2.41812C11.4878 2.42582 11.5563 2.43268 11.6259 2.43804C11.6361 2.43876 11.6463 2.43956 11.6565 2.44037C11.6748 2.44181 11.6932 2.44327 11.7119 2.44424C11.8095 2.45026 11.9087 2.45411 12.012 2.45411C13.4079 2.45411 14.2985 1.89863 14.2985 1.5161C14.2985 1.44445 14.267 1.36677 14.2069 1.28758C14.1859 1.25895 14.1591 1.23083 14.1306 1.2022C14.1235 1.19532 14.1164 1.18871 14.1091 1.182L14.107 1.1801C14.0774 1.15281 14.0455 1.12519 14.009 1.09807C14.0076 1.09723 14.0066 1.09623 14.0057 1.09539C13.9679 1.06777 13.9259 1.04015 13.8812 1.01302L13.8757 1.00975C13.8668 1.00431 13.8578 0.998875 13.8483 0.993438C13.8025 0.966652 13.7546 0.940369 13.703 0.915425C13.702 0.91509 13.7011 0.914588 13.7006 0.914253C13.6465 0.88847 13.5888 0.863694 13.5287 0.839921C13.5221 0.837408 13.5153 0.834751 13.5086 0.832104C13.5028 0.829814 13.497 0.827531 13.4913 0.825357C13.3671 0.778312 13.2304 0.735456 13.0817 0.699798C13.069 0.696617 13.056 0.693604 13.0428 0.69059C12.8551 0.64706 12.6495 0.613747 12.4273 0.595332C12.2947 0.58445 12.1558 0.578423 12.0117 0.578423C11.8748 0.578423 11.7434 0.584617 11.6167 0.594662H11.616C11.5497 0.600019 11.4851 0.606548 11.4217 0.614249C11.42 0.614374 11.4184 0.61459 11.4165 0.61483C11.4159 0.614913 11.4152 0.615 11.4145 0.615086C11.3512 0.622787 11.2897 0.631493 11.2297 0.641537C11.2283 0.641537 11.2271 0.641823 11.2257 0.64213L11.2254 0.642207C10.8062 0.712352 10.462 0.833723 10.2095 0.974518C10.2061 0.97639 10.2028 0.978198 10.1994 0.979995C10.1935 0.983178 10.1876 0.986328 10.1819 0.989752C10.1576 1.00339 10.1351 1.01764 10.1125 1.03191L10.1096 1.03378C10.1014 1.03931 10.093 1.04469 10.0848 1.05003C10.0805 1.05277 10.0763 1.05549 10.0721 1.05822C10.0524 1.07161 10.0339 1.08534 10.0159 1.09873C10.0023 1.10878 9.98928 1.11899 9.97658 1.12904C9.96117 1.14159 9.94657 1.15365 9.93264 1.1662C9.9194 1.17808 9.9071 1.18997 9.8948 1.20185C9.893 1.20363 9.89118 1.20541 9.88937 1.20719C9.87994 1.21643 9.87056 1.22562 9.86194 1.23517C9.84964 1.24857 9.83856 1.26196 9.82801 1.27535C9.82605 1.27783 9.82405 1.28031 9.82205 1.28279C9.81606 1.29025 9.81003 1.29775 9.80476 1.30515C9.79394 1.32039 9.78529 1.33545 9.77664 1.35069C9.77485 1.35381 9.77292 1.35694 9.77099 1.36006C9.76796 1.36497 9.76493 1.36988 9.76245 1.3748ZM14.2987 3.37485V2.3851C13.7716 2.80867 12.8755 3.03217 12.0125 3.03233V4.31252C13.4081 4.31252 14.2987 3.75722 14.2987 3.37485ZM3.90147 4.10961C3.89025 4.13255 3.88078 4.15548 3.87484 4.17775C3.86808 4.20269 3.86442 4.22749 3.86469 4.2511C3.86469 4.27236 3.86888 4.29362 3.87388 4.31572C3.87541 4.32248 3.87764 4.32909 3.87993 4.33583L3.88037 4.33715C3.8851 4.35221 3.89159 4.36778 3.89862 4.38319C3.89975 4.38563 3.90082 4.3881 3.9019 4.39057C3.90442 4.39639 3.90697 4.40226 3.91038 4.40813C3.92079 4.42688 3.93323 4.44613 3.94715 4.46522C3.95743 4.47978 3.96973 4.49434 3.98216 4.50891C3.98703 4.51494 3.99203 4.52079 3.9973 4.52682C4.13518 4.68 4.37851 4.83386 4.7093 4.95523C4.71543 4.95749 4.72167 4.95972 4.72798 4.96197C4.73378 4.96403 4.73964 4.96612 4.74553 4.96829C4.80731 4.99038 4.8722 5.01081 4.93992 5.03023C4.94383 5.03138 4.94764 5.03255 4.95143 5.03372C4.95865 5.03594 4.96578 5.03813 4.97331 5.0401C5.05239 5.0622 5.13431 5.08179 5.22056 5.09937C5.22634 5.10054 5.23226 5.10155 5.23816 5.10255C5.24233 5.10326 5.24648 5.10396 5.25057 5.10472C5.32411 5.11895 5.40022 5.13168 5.47835 5.14273C5.49997 5.14582 5.52202 5.14848 5.54408 5.15114C5.54948 5.1518 5.55488 5.15245 5.56027 5.15311C5.62678 5.16114 5.69532 5.16801 5.76521 5.17336C5.77537 5.17408 5.78548 5.17488 5.7956 5.17568C5.81392 5.17713 5.8323 5.17859 5.85119 5.17956C5.94879 5.18558 6.04801 5.18943 6.15129 5.18943C7.54705 5.18943 8.43775 4.63395 8.43775 4.25142C8.43775 4.1796 8.40626 4.10176 8.34651 4.02257C8.32488 3.99427 8.29811 3.96615 8.26959 3.93752C8.26215 3.92999 8.25445 3.92279 8.24647 3.91542C8.2166 3.8878 8.18442 3.86051 8.14819 3.83339C8.14732 3.83279 8.14659 3.83211 8.1459 3.83146C8.14562 3.8312 8.14535 3.83095 8.14508 3.83071C8.10737 3.80309 8.06506 3.77547 8.02058 3.74835C8.01503 3.74507 8.00951 3.7418 8.00399 3.73853C7.99849 3.73527 7.99299 3.73202 7.98746 3.72876C7.94177 3.70214 7.89405 3.67569 7.84214 3.65075C7.84155 3.65054 7.84111 3.65026 7.84071 3.65L7.83998 3.64957C7.78618 3.62379 7.72818 3.59901 7.66816 3.57524C7.66114 3.57265 7.65415 3.56991 7.64721 3.56718C7.6416 3.56497 7.63601 3.56277 7.63045 3.56068C7.50649 3.51363 7.36982 3.47078 7.22112 3.43512C7.21542 3.4338 7.20977 3.43244 7.20411 3.43108C7.19688 3.42934 7.18962 3.4276 7.18219 3.42591C6.99455 3.38238 6.78922 3.34907 6.56671 3.33065C6.43395 3.31944 6.29526 3.31341 6.15115 3.31341C6.01393 3.31341 5.88281 3.32011 5.75574 3.33015H5.75506C5.68896 3.33534 5.62434 3.34187 5.56094 3.34957C5.5585 3.34974 5.55621 3.35007 5.5535 3.35041C5.49024 3.35777 5.42873 3.36681 5.36871 3.37686C5.36734 3.37686 5.36608 3.37714 5.36473 3.37745L5.36439 3.37753C4.94547 3.44767 4.60116 3.56888 4.34851 3.70984C4.3449 3.71188 4.34126 3.71384 4.33764 3.71579C4.33205 3.71881 4.32648 3.72182 4.32106 3.72507C4.29565 3.7393 4.272 3.7542 4.24874 3.7691C4.24217 3.77352 4.23544 3.77786 4.22879 3.78214C4.22285 3.78597 4.21697 3.78975 4.2113 3.79354C4.19129 3.80693 4.17277 3.82033 4.15479 3.83406C4.14141 3.8441 4.12789 3.85431 4.11546 3.86436C4.10005 3.87691 4.08545 3.88897 4.07152 3.90152C4.05828 3.91341 4.04584 3.92496 4.03381 3.93718C4.02232 3.94823 4.0111 3.95911 4.00096 3.9705C3.98839 3.98389 3.97757 3.99728 3.96703 4.01034C3.96462 4.01343 3.96216 4.01652 3.9597 4.0196C3.95416 4.02654 3.94865 4.03346 3.94378 4.04031C3.93296 4.05554 3.92431 4.07061 3.91566 4.08584C3.91371 4.08926 3.91158 4.09267 3.90947 4.09607C3.90662 4.10065 3.9038 4.10519 3.90147 4.10961ZM8.43772 6.10967V5.11992C7.91038 5.54383 7.01466 5.76732 6.15154 5.76715V7.04734C7.54715 7.04734 8.43772 6.49203 8.43772 6.10967ZM3.39761 6.10965V5.04727L0.890978 6.21706L12.0682 11.5161L23.132 6.35254L20.682 5.19102V6.17909C20.682 7.16382 19.2638 7.69517 17.9283 7.69517C16.594 7.69517 15.1756 7.16382 15.1756 6.17909V4.32102C15.1756 4.19797 15.1978 4.08195 15.2396 3.9733C15.3854 3.58909 15.7717 3.2958 16.2675 3.09859L14.7651 2.38643V3.37433C14.7651 4.35872 13.3462 4.89041 12.0116 4.89041C10.677 4.89041 9.25858 4.35906 9.25858 3.37433V2.31229L7.76264 3.01022C7.79481 3.02277 7.82698 3.03533 7.85821 3.04805C7.86348 3.05051 7.86881 3.05263 7.87416 3.05476C7.87717 3.05596 7.8802 3.05716 7.88322 3.05843C7.92026 3.07417 7.95621 3.09074 7.99204 3.10748C7.9958 3.1093 7.99959 3.1111 8.00339 3.11291C8.01147 3.11676 8.01959 3.12062 8.02759 3.12472C8.0599 3.14046 8.09113 3.1567 8.12181 3.17344C8.13668 3.18131 8.15155 3.18968 8.16601 3.19805C8.19318 3.21345 8.22036 3.22919 8.24631 3.24559C8.26334 3.25631 8.28011 3.26702 8.29646 3.27807C8.31931 3.29314 8.34216 3.30837 8.36378 3.32411C8.37902 3.33513 8.39348 3.34648 8.40793 3.3578C8.41169 3.36075 8.41544 3.36369 8.41921 3.36663L8.42395 3.37028C8.44061 3.38311 8.45721 3.39588 8.47301 3.40949C8.49464 3.42757 8.51465 3.44632 8.53479 3.4654C8.53954 3.46989 8.54444 3.47428 8.54934 3.47867C8.55741 3.4859 8.56546 3.49312 8.57278 3.50073C8.60455 3.53254 8.63429 3.56502 8.66173 3.59867C8.70026 3.64604 8.7346 3.69476 8.76461 3.74565C8.82436 3.8471 8.8664 3.95576 8.88803 4.07177C8.89857 4.12986 8.90411 4.18963 8.90411 4.25124V6.10965C8.90411 7.09404 7.48552 7.62573 6.1506 7.62573C4.81607 7.62573 3.39761 7.09439 3.39761 6.10965ZM12.3012 23.2933L23.556 18.0416V6.77313L12.3012 12.0244V23.2933Z" fill="url(#paint1_linear_73_4967)"/>
<path fill-rule="evenodd" clip-rule="evenodd" d="M85.8331 16.914C87.1978 16.914 88.3597 16.4415 89.3192 15.4965C90.2787 14.538 90.7514 13.377 90.7514 12C90.7514 10.623 90.2787 9.462 89.3192 8.517C88.3597 7.5585 87.1978 7.086 85.8331 7.086C84.4677 7.086 83.3058 7.5585 82.3463 8.517C81.4003 9.462 80.9276 10.623 80.9276 12C80.9276 13.377 81.4003 14.538 82.3463 15.4965C83.3058 16.4415 84.4677 16.914 85.8331 16.914ZM85.8331 15.0915C84.968 15.0915 84.2384 14.808 83.6571 14.2275C83.0759 13.647 82.7786 12.9045 82.7786 12C82.7786 11.0955 83.0759 10.353 83.6571 9.7725C84.2384 9.192 84.968 8.895 85.8331 8.895C86.6976 8.895 87.4272 9.192 88.0084 9.7725C88.5896 10.353 88.887 11.0955 88.887 12C88.887 12.9045 88.5896 13.647 88.0084 14.2275C87.4272 14.808 86.6976 15.0915 85.8331 15.0915Z" fill="currentColor"/>
<path d="M38.1395 13.272L40.2339 16.836H38.2204L36.3155 13.5555H34.8967V16.836H33.0317V11.9235H35.2762V11.922H36.8152C37.5178 11.922 38.099 11.2875 38.099 10.518C38.099 9.7485 37.5178 9.1275 36.8152 9.1275L33.0317 9.1275V7.386H36.8152C37.6937 7.386 38.4368 7.6965 39.045 8.304C39.6532 8.9115 39.9641 9.654 39.9641 10.518C39.9641 11.6925 39.2339 12.7725 38.1395 13.272Z" fill="currentColor"/>
<path d="M44.8015 12.9345V12.936H42.9365V11.1795L48.3821 11.1795V12.9345H44.8015Z" fill="currentColor"/>
<path d="M42.9365 9.168V7.386H48.7199V9.168H42.9365Z" fill="currentColor"/>
<path d="M44.8989 15.054V15.0585H42.9365V16.836H48.7874V15.054H44.8989Z" fill="currentColor"/>
<path d="M60.4353 16.836H58.4083L58.0341 15.7129L55.9832 9.486H55.9093L53.4888 16.836H51.49L54.8008 7.386H57.1116L60.4353 16.836Z" fill="currentColor"/>
<path d="M68.9266 11.9355C69.7506 12.408 70.17 13.137 70.17 14.0955C70.17 14.892 69.8861 15.5535 69.3184 16.0665C68.7507 16.5795 68.048 16.836 67.224 16.836H63.2106V15.0945L67.224 15.0945C67.8592 15.0945 68.3184 14.622 68.3184 13.974C68.3184 13.3395 67.8592 12.867 67.224 12.867L63.2106 12.867V11.2065L66.9401 11.2065C67.5214 11.2065 67.9536 10.761 67.9536 10.167C67.9536 9.573 67.5349 9.1275 66.9401 9.1275H65.485V9.126H63.2106V7.386H66.9401C67.7507 7.386 68.4263 7.6425 68.9806 8.142C69.5348 8.6415 69.8187 9.276 69.8187 10.0455C69.8187 10.8285 69.5213 11.463 68.9266 11.9355Z" fill="currentColor"/>
<path d="M74.6849 7.386V15.054H78.2924V16.836H72.8198V7.386H74.6849Z" fill="currentColor"/>
<path d="M109.007 11.676L112.642 16.536H110.494L107.115 12.108V16.536H105.251V7.086H107.115V11.2575L110.359 7.086H112.507L109.007 11.676Z" fill="currentColor"/>
<path d="M93.5397 12.2409V11.759C93.5901 10.4734 94.0493 9.38069 94.9267 8.5035C95.8593 7.5585 97.0352 7.086 98.4539 7.086C100.17 7.086 101.711 7.95 102.521 9.3135L100.913 10.245C100.44 9.3945 99.5349 8.895 98.4539 8.895C97.5349 8.895 96.7918 9.1785 96.2241 9.759C95.6704 10.3395 95.3866 11.082 95.3866 12C95.3866 12.9045 95.6704 13.647 96.2241 14.2275C96.7918 14.808 97.5349 15.0915 98.4539 15.0915C99.5349 15.0915 100.467 14.5785 100.913 13.755L102.521 14.6865C101.711 16.05 100.184 16.914 98.4539 16.914C97.0352 16.914 95.8593 16.4415 94.9267 15.4965C94.0493 14.6066 93.5901 13.5252 93.5397 12.2409Z" fill="currentColor"/>
<path d="M118.818 16.875C117.006 16.875 115.722 16.0456 115.16 14.69V14.5053L116.696 13.608C117.061 14.5665 117.791 15.0525 118.872 15.0525C119.912 15.0525 120.386 14.634 120.386 14.0535C120.386 13.716 120.237 13.4595 119.939 13.284C119.642 13.095 119.115 12.8925 118.345 12.6765C117.493 12.42 116.98 12.2175 116.386 11.799C115.804 11.367 115.494 10.719 115.494 9.855C115.494 9.0045 115.791 8.316 116.399 7.8165C116.87 7.41899 117.423 7.17549 118.044 7.086H119.179C120.431 7.25938 121.415 8.00331 121.98 9.1665L120.412 10.071C120.034 9.261 119.426 8.856 118.602 8.856C117.831 8.856 117.359 9.2475 117.359 9.801C117.359 10.098 117.48 10.341 117.723 10.53C117.98 10.7055 118.453 10.908 119.156 11.124L119.804 11.34C119.953 11.3805 120.156 11.4615 120.412 11.5695C120.669 11.664 120.872 11.7585 121.007 11.853C121.29 12.0285 121.723 12.366 121.899 12.69C122.102 13.014 122.25 13.4865 122.25 14.0265C122.25 14.904 121.926 15.5925 121.29 16.1055C120.656 16.6185 119.831 16.875 118.818 16.875Z" fill="currentColor"/>
<defs>
<linearGradient id="paint0_linear_73_4967" x1="19.004" y1="21.0133" x2="24.6503" y2="-16.3971" gradientUnits="userSpaceOnUse">
<stop stop-color="#105EFF"/>
<stop offset="0.413357" stop-color="#009BFF"/>
<stop offset="0.735652" stop-color="#105EFF"/>
<stop offset="1" stop-color="#090E43"/>
</linearGradient>
<linearGradient id="paint1_linear_73_4967" x1="19.004" y1="21.0133" x2="24.6503" y2="-16.3971" gradientUnits="userSpaceOnUse">
<stop stop-color="#105EFF"/>
<stop offset="0.413357" stop-color="#009BFF"/>
<stop offset="0.735652" stop-color="#105EFF"/>
<stop offset="1" stop-color="#090E43"/>
</linearGradient>
</defs>
</svg>
