<?xml version="1.0" standalone="no"?>
<!DOCTYPE svg PUBLIC "-//W3C//DTD SVG 20010904//EN"
 "http://www.w3.org/TR/2001/REC-SVG-20010904/DTD/svg10.dtd">
<svg version="1.0" xmlns="http://www.w3.org/2000/svg"
 width="644.000000pt" height="644.000000pt" viewBox="0 0 644.000000 644.000000"
 preserveAspectRatio="xMidYMid meet">
<metadata>
Created by potrace 1.14, written by Peter Selinger 2001-2017
</metadata>
<g transform="translate(0.000000,644.000000) scale(0.100000,-0.100000)"
fill="#000000" stroke="none">
<path d="M3030 6410 c-97 -17 -116 -21 -155 -32 -22 -6 -44 -12 -50 -14 -32
-7 -128 -50 -175 -79 -122 -75 -178 -165 -180 -288 0 -26 -10 -32 -146 -97
-80 -39 -147 -70 -149 -70 -2 0 -59 -26 -127 -59 -68 -32 -140 -66 -161 -76
-21 -10 -53 -17 -70 -15 -89 9 -349 3 -412 -9 -236 -46 -409 -146 -467 -270
-24 -52 -26 -62 -27 -119 l-1 -43 -117 -55 c-65 -31 -120 -56 -123 -56 -3 0
-21 -8 -40 -18 -19 -11 -64 -32 -100 -49 -36 -16 -119 -54 -185 -86 -66 -31
-138 -65 -161 -76 -22 -10 -46 -19 -52 -19 -7 0 -12 -4 -12 -10 0 -5 -7 -10
-15 -10 -25 0 -95 -49 -96 -68 -1 -9 -2 -739 -3 -1621 l-1 -1605 23 -28 c13
-15 28 -28 32 -28 5 0 62 -25 127 -56 65 -31 154 -73 198 -94 44 -21 132 -62
195 -92 196 -94 311 -149 405 -193 50 -24 119 -57 154 -74 36 -17 70 -31 78
-31 7 0 13 -4 13 -9 0 -5 10 -13 22 -17 13 -3 70 -29 128 -57 58 -27 146 -69
195 -92 50 -23 142 -67 205 -97 63 -30 149 -71 190 -91 41 -19 129 -61 195
-92 128 -61 245 -117 390 -185 85 -40 140 -66 420 -200 206 -98 232 -110 242
-110 11 0 85 31 172 74 30 14 61 26 68 26 7 0 13 3 13 8 0 4 15 13 33 21 17 7
83 38 146 67 62 30 115 54 116 54 2 0 57 25 122 56 65 31 174 82 243 114 69
32 170 79 225 105 223 105 258 121 455 212 30 14 91 43 135 63 44 21 184 86
310 145 127 59 273 128 325 152 52 25 122 58 155 73 33 15 95 44 138 64 42 20
82 36 87 36 6 0 10 4 10 8 0 4 17 14 37 21 21 8 87 37 148 66 60 29 136 64
167 78 38 17 62 36 71 54 19 39 18 3216 -1 3250 -11 20 -104 69 -307 163 -80
37 -220 104 -380 180 -60 29 -128 61 -150 71 l-40 18 -2 65 c-1 40 -10 83 -22
111 -46 105 -203 210 -381 256 -62 15 -79 19 -125 24 -22 3 -51 7 -65 10 -33
7 -235 7 -280 0 -71 -11 -97 -6 -165 28 -38 19 -110 54 -160 77 -49 23 -150
71 -224 106 -73 35 -138 64 -142 64 -5 0 -9 3 -10 8 0 4 -1 34 -3 67 -3 61
-23 135 -38 135 -4 0 -8 6 -8 13 0 20 -71 84 -141 128 -59 37 -207 90 -289
105 -19 3 -46 8 -60 10 -46 9 -325 12 -370 4z m300 -150 c3 -1 8 -2 12 -1 15
2 174 -31 213 -44 86 -29 192 -88 223 -124 61 -73 39 -133 -73 -206 -141 -91
-388 -135 -635 -112 -54 5 -68 7 -160 29 -151 35 -285 120 -313 199 -3 9 3 35
14 57 37 75 189 153 364 188 11 2 49 7 85 10 36 4 66 7 67 8 3 3 196 -2 203
-4z m-859 -597 c1 -192 2 -202 28 -257 58 -118 198 -206 408 -254 414 -97 883
20 999 248 27 52 28 63 30 205 2 83 3 156 3 162 1 16 9 13 204 -81 87 -42 163
-76 167 -76 5 0 11 -4 14 -9 3 -5 -22 -23 -57 -41 -102 -51 -180 -132 -207
-215 -18 -56 -18 -594 0 -650 37 -113 150 -205 326 -264 136 -46 228 -59 399
-60 125 0 160 3 266 24 84 16 242 77 304 117 35 23 114 106 130 139 25 47 28
70 29 232 0 81 4 147 7 147 6 0 63 -27 379 -177 58 -28 141 -68 185 -88 l80
-38 -115 -55 c-63 -30 -142 -67 -175 -83 -33 -15 -118 -55 -189 -88 -71 -34
-135 -61 -142 -61 -8 0 -14 -4 -14 -10 0 -5 -4 -10 -9 -10 -5 0 -55 -22 -112
-49 -57 -26 -160 -74 -229 -106 -69 -32 -174 -81 -235 -110 -60 -29 -135 -64
-165 -78 -87 -39 -177 -81 -285 -132 -55 -26 -129 -61 -165 -77 -36 -17 -101
-47 -145 -68 -44 -21 -105 -49 -135 -63 -30 -14 -104 -48 -165 -77 -60 -29
-137 -64 -170 -80 -108 -50 -219 -102 -300 -140 -44 -21 -106 -49 -137 -64
l-57 -25 -63 28 c-35 16 -126 59 -203 96 -178 86 -289 138 -295 139 -3 1 -41
19 -85 40 -44 21 -127 61 -185 88 -58 28 -151 72 -207 99 -56 27 -107 49 -113
49 -5 0 -10 5 -10 10 0 6 -5 10 -12 10 -6 0 -38 13 -72 29 -147 70 -308 146
-401 191 -55 26 -129 61 -165 78 -36 16 -126 59 -200 95 -74 35 -160 76 -190
90 -30 14 -118 55 -195 92 -77 37 -176 84 -220 105 -44 21 -133 63 -198 94
-65 31 -122 56 -126 56 -5 0 -14 6 -20 13 -9 11 5 21 67 50 42 19 118 54 167
77 50 23 119 56 155 72 36 17 107 50 158 74 51 24 95 44 97 44 2 0 5 -80 7
-177 3 -160 5 -182 25 -218 44 -82 123 -148 238 -198 63 -28 194 -66 248 -73
18 -2 49 -6 70 -10 76 -12 353 -4 379 12 3 2 26 7 50 10 62 9 201 60 261 96
91 54 166 138 185 208 2 8 5 152 6 320 1 300 1 306 -22 354 -33 69 -115 146
-199 186 -58 28 -68 36 -58 47 8 7 18 13 22 13 5 0 31 11 59 24 27 14 94 45
149 71 55 25 107 50 115 55 8 5 18 9 23 9 4 1 7 -61 8 -136z m1343 -20 c0
-150 -6 -169 -58 -216 -38 -34 -145 -90 -206 -108 -25 -7 -47 -13 -50 -14 -6
-2 -66 -13 -105 -20 -73 -13 -178 -17 -184 -7 -5 8 -7 312 -2 332 0 3 22 5 48
4 84 -1 237 25 353 61 42 13 136 60 170 86 14 10 27 19 30 19 3 0 5 -62 4
-137z m-1975 -122 c25 -5 49 -8 53 -5 4 3 8 1 8 -5 0 -5 8 -8 17 -7 33 5 253
-86 253 -104 0 -5 8 -11 18 -14 25 -9 62 -71 62 -106 0 -42 -67 -108 -156
-151 -38 -19 -71 -34 -74 -35 -3 0 -12 -3 -20 -7 -29 -11 -162 -38 -218 -43
-123 -12 -271 -6 -386 16 -190 37 -371 151 -360 228 1 6 2 18 3 25 2 21 66 83
115 112 44 26 162 71 206 79 14 2 25 5 25 6 0 3 43 10 105 16 36 4 66 7 67 9
8 6 245 -5 282 -14z m3171 -25 c157 -33 251 -73 324 -138 67 -58 71 -117 12
-173 -43 -40 -153 -102 -196 -110 -8 -2 -15 -4 -15 -5 0 -2 -24 -9 -95 -25
-267 -60 -593 -18 -770 98 -67 45 -95 83 -94 130 1 34 8 46 48 82 40 37 129
90 139 83 2 -2 10 2 18 8 21 17 120 44 217 58 112 16 316 12 412 -8z m-2758
-592 c-2 -179 -17 -203 -167 -274 -117 -56 -236 -82 -380 -84 l-60 -1 0 168 0
169 80 4 c70 4 106 9 224 30 13 3 32 9 43 15 10 5 18 7 18 5 0 -9 153 59 195
86 22 14 42 24 44 22 2 -2 3 -65 3 -140z m3136 -24 l-3 -149 -39 -40 c-89 -91
-295 -159 -501 -164 l-60 -2 -1 168 c-1 92 1 167 5 168 3 0 31 2 61 4 52 3
137 13 170 20 8 2 29 6 46 9 17 3 49 12 72 20 23 9 43 15 45 15 17 -2 164 70
178 88 26 31 30 9 27 -137z m894 -290 c-2 -11 -3 -26 -2 -92 2 -69 1 -201 -1
-220 -1 -7 -1 -49 0 -93 0 -44 0 -87 0 -95 -1 -8 -1 -31 0 -50 2 -46 3 -231 2
-247 -1 -7 -1 -19 -2 -25 -1 -7 0 -29 0 -48 3 -52 2 -215 0 -242 -1 -7 -1 -49
0 -93 0 -44 0 -87 0 -95 -1 -8 0 -31 0 -50 3 -52 2 -215 0 -242 -1 -7 -1 -49
0 -93 0 -44 0 -87 0 -95 -1 -8 -1 -31 0 -50 2 -46 3 -231 2 -247 -1 -7 -1 -19
-2 -25 -1 -7 0 -29 0 -48 3 -52 2 -215 0 -242 -1 -7 -1 -49 0 -93 0 -44 0 -87
0 -95 -1 -8 0 -31 0 -50 2 -30 2 -164 1 -217 0 -10 0 -44 1 -76 l0 -57 -93
-44 c-51 -24 -120 -56 -153 -71 -60 -28 -141 -66 -359 -169 -65 -31 -120 -56
-122 -56 -2 0 -56 -25 -121 -56 -65 -31 -145 -69 -178 -84 -55 -25 -114 -53
-310 -145 -38 -18 -133 -62 -210 -98 -77 -36 -185 -86 -240 -112 -92 -43 -179
-83 -215 -98 -8 -4 -22 -11 -30 -16 -8 -5 -35 -18 -60 -29 -106 -49 -249 -116
-295 -139 -27 -13 -51 -25 -52 -24 -2 0 -81 -36 -263 -122 -200 -93 -257 -120
-276 -127 l-21 -9 1 1501 1 1501 63 32 c34 18 62 31 62 29 0 -2 21 7 48 20 26
14 88 44 137 67 50 23 119 55 155 72 36 17 67 31 70 32 5 2 51 23 230 107 52
25 118 55 145 68 28 12 91 42 140 65 50 23 126 59 170 80 44 20 118 55 163 77
46 21 113 52 148 69 35 16 93 42 128 58 35 17 102 48 148 69 45 22 112 53 148
70 36 16 123 58 194 91 71 34 135 61 143 61 7 0 13 5 13 10 0 6 4 10 10 10 5
0 47 18 92 39 218 103 280 132 373 174 55 26 123 57 150 71 52 26 72 28 67 6z"/>
<path d="M3248 4946 c-1 -2 -52 -6 -113 -9 -122 -7 -136 -9 -250 -39 -180 -47
-323 -143 -375 -253 -23 -49 -23 -56 -23 -335 0 -157 2 -299 5 -316 13 -73 65
-146 148 -206 41 -29 165 -88 186 -88 9 0 23 -4 32 -9 42 -22 244 -52 357 -53
62 -1 240 17 277 28 9 3 27 7 40 10 28 6 38 9 58 17 8 3 29 10 45 15 54 17
135 56 135 64 0 4 6 8 13 8 21 0 114 93 136 136 33 64 36 105 35 396 -1 204
-5 285 -14 310 -68 170 -292 287 -600 314 -36 3 -70 7 -77 9 -6 2 -13 2 -15 1z
m162 -171 c19 -3 46 -8 60 -12 14 -3 30 -7 35 -9 6 -1 21 -4 35 -7 42 -8 152
-57 195 -87 106 -74 119 -134 44 -209 -36 -35 -165 -102 -234 -120 -144 -38
-391 -52 -512 -30 -26 5 -57 11 -68 13 -11 2 -40 9 -65 16 -25 7 -46 12 -47
11 -2 0 -26 10 -54 23 -107 50 -189 123 -189 170 0 99 217 220 435 242 33 4
62 8 63 9 6 5 264 -3 302 -10z m419 -606 c1 -147 -8 -179 -59 -223 -30 -24
-120 -76 -145 -82 -5 -2 -29 -10 -52 -18 -22 -8 -52 -17 -65 -20 -12 -3 -32
-7 -43 -9 -53 -12 -110 -19 -174 -22 l-71 -3 0 171 0 172 43 1 c43 1 209 18
225 23 1 1 4 1 7 2 65 8 243 80 290 116 17 12 33 23 36 23 4 0 7 -59 8 -131z"/>
</g>
</svg>
