<svg width="22" height="22" viewBox="0 0 22 22" fill="currentColor"
    xmlns="http://www.w3.org/2000/svg">
    <g id="Linked in">
        <path id="Subtract" fill-rule="evenodd" clip-rule="evenodd"
            d="M5.8941 2.5C4.01959 2.5 2.5 4.01959 2.5 5.8941V16.1059C2.5 17.9804 4.01959 19.5 5.8941 19.5H16.1059C17.9804 19.5 19.5 17.9804 19.5 16.1059V5.8941C19.5 4.01959 17.9804 2.5 16.1059 2.5H5.8941ZM8.1466 9.30423V16.12H6.0281V9.30423H8.1466ZM8.29694 7.06433C8.29694 7.64974 7.87565 8.29372 7.08045 8.29372L7.08027 8.29366H7.0655C6.32899 8.29366 5.87891 7.6645 5.87891 7.06427C5.87891 6.39099 6.41016 5.87891 7.09557 5.87891C7.74566 5.87891 8.28205 6.39099 8.29694 7.06433ZM11.3946 16.12H9.33522V9.30423H11.2619V10.2532C11.6716 9.81763 12.2942 9.17268 13.5094 9.17268C15.0061 9.22873 16.1202 10.0942 16.1202 12.2013V16.12H14.0462V12.4651C14.0462 11.5428 13.5241 11.076 12.699 11.076C12.2982 11.076 11.7964 11.3095 11.573 11.7478C11.4692 11.9514 11.3946 12.0993 11.3946 12.3041V16.12Z" />
    </g>
</svg>